<?xml version="1.0" standalone="no"?>
<!DOCTYPE svg PUBLIC "-//W3C//DTD SVG 20010904//EN"
 "http://www.w3.org/TR/2001/REC-SVG-20010904/DTD/svg10.dtd">
<svg version="1.0" xmlns="http://www.w3.org/2000/svg"
 width="270.000000pt" height="104.000000pt" viewBox="0 0 270.000000 104.000000"
 preserveAspectRatio="xMidYMid meet">

<g transform="translate(0.000000,104.000000) scale(0.100000,-0.100000)"
fill="#000000" stroke="none">
<path d="M215 847 c2 -12 23 -155 45 -317 22 -162 42 -305 45 -317 4 -17 14
-23 53 -28 26 -3 61 -8 78 -11 l31 -4 43 112 c24 62 62 167 85 233 33 92 44
114 48 95 3 -14 18 -121 33 -238 15 -117 30 -216 33 -221 4 -5 40 -12 82 -15
l76 -7 83 218 c45 120 96 255 113 301 16 45 31 81 32 80 2 -2 46 -83 99 -181
l96 -178 0 -130 0 -129 70 0 70 0 0 124 0 125 101 186 c56 103 105 183 109
178 4 -4 56 -140 116 -301 l109 -294 75 7 c41 4 78 10 82 13 6 6 48 286 63
426 l7 59 86 -232 87 -231 45 5 c127 16 117 11 123 63 3 26 24 177 47 336 22
159 39 290 38 292 -4 4 -127 -12 -132 -17 -7 -7 -56 -425 -56 -475 0 -28 -4
-43 -10 -39 -5 3 -10 13 -10 21 0 14 -74 220 -139 390 l-31 80 -61 -7 c-34 -4
-64 -11 -69 -16 -8 -9 -70 -438 -71 -488 0 -25 -77 179 -157 419 l-17 48 -65
-6 c-36 -3 -95 -6 -132 -6 l-68 0 -65 -130 c-36 -72 -69 -129 -73 -126 -4 2
-36 60 -72 129 l-65 124 -124 6 c-69 4 -128 3 -132 -1 -3 -4 -41 -108 -84
-232 -99 -289 -94 -277 -94 -208 -1 53 -59 468 -66 477 -2 1 -31 6 -65 10
l-62 8 -18 -41 c-19 -45 -142 -373 -158 -421 l-9 -30 -6 45 c-3 25 -17 139
-30 253 -14 115 -28 212 -33 216 -5 5 -37 11 -72 15 -61 6 -62 5 -57 -17z"/>
</g>
</svg>
